<svg xmlns="http://www.w3.org/2000/svg" viewBox="0 0 589 589">
    <path d="M258.423 66.9396C274.754 39.6868 314.246 39.6868 330.577 66.9396L348.942 97.5875C358.466 113.481 377.269 121.27 395.242 116.766L429.9 108.081C460.718 100.358 488.643 128.282 480.92 159.1L472.234 193.758C467.73 211.731 475.519 230.534 491.412 240.058L522.06 258.423C549.313 274.754 549.313 314.246 522.06 330.577L491.412 348.942C475.519 358.466 467.73 377.269 472.234 395.242L480.919 429.9C488.642 460.718 460.718 488.642 429.9 480.919L395.242 472.234C377.269 467.73 358.466 475.519 348.942 491.412L330.577 522.06C314.246 549.313 274.754 549.313 258.423 522.06L240.058 491.412C230.534 475.519 211.731 467.73 193.758 472.234L159.101 480.919C128.282 488.642 100.358 460.718 108.081 429.9L116.766 395.242C121.27 377.269 113.481 358.466 97.5875 348.942L66.9396 330.577C39.6868 314.246 39.6868 274.754 66.9396 258.423L97.5875 240.058C113.481 230.534 121.27 211.731 116.766 193.758L108.081 159.101C100.358 128.282 128.282 100.358 159.1 108.081L193.758 116.766C211.731 121.27 230.534 113.481 240.058 97.5875L258.423 66.9396Z" fill="#FFFFFF"></path>
</svg>